<svg xmlns="http://www.w3.org/2000/svg" width="59" height="32"><path fill="#8e8f99" d="M28.637 3.391h-.078c-.12-.007-.24-.01-.36-.013h-.26c-.227 0-.458.006-.688.017l-.026-.001-.027.001h.001c-2.206.129-4.255.68-6.106 1.575l.096-.042-.247.119V17.7l.578-.197a22.494 22.494 0 0 1 1.607-.477c1.382-.37 2.973-.592 4.612-.614h.013v1.662c-.207.001-.407.007-.609.017h-.048a18.56 18.56 0 0 0-3.688.575l.129-.029c-1.61.409-3.021.975-4.333 1.7l.093-.047V4.063a16.636 16.636 0 0 1 4.331-1.784l.118-.026c1.256-.338 2.7-.535 4.189-.541h.247c.292.007.577.021.845.041.705.05 1.403.161 2.089.333v1.636a12.316 12.316 0 0 0-1.981-.303l-.042-.002-.042-.003c-.141-.012-.282-.024-.414-.024zm2.879 1.672c.363.028.739.041 1.119.041a17.996 17.996 0 0 0 4.533-.594l-.125.028c1.61-.411 3.02-.977 4.331-1.7l-.094.047v15.937a16.634 16.634 0 0 1-4.331 1.783l-.118.026c-1.257.337-2.7.533-4.189.539h-.107c-1.093 0-2.153-.137-3.166-.394l.089.019V4.754c.246.057.499.109.756.153.422.071.867.123 1.301.155zm8.111.124-.578.194a25.05 25.05 0 0 1-1.607.481c-1.44.385-3.094.61-4.8.616h-.004c-.377 0-.724-.01-1.059-.032l-.461-.03v13.015l.396.034c.367.033.746.049 1.127.049a15.376 15.376 0 0 0 3.89-.514l-.107.024a15.79 15.79 0 0 0 3.051-1.104l-.094.041.247-.119V5.186zM20.421 25.835a.85.85 0 0 0-.613-.261l-.032.001h.002-.013a.966.966 0 0 0-.365.072l.006-.002a.837.837 0 0 0-.473.475l-.002.006a.919.919 0 0 0-.066.359v2.168c-.006.153.024.305.085.445.051.111.125.21.217.291a.748.748 0 0 0 .297.154c.106.029.215.045.324.045a.919.919 0 0 0 .899-.912v-.242h-.567V28.64a.481.481 0 0 1-.035.183l.001-.003a.337.337 0 0 1-.082.122.402.402 0 0 1-.237.083.286.286 0 0 1-.265-.116l-.001-.001a.504.504 0 0 1-.076-.269v-.023.001-2.022a.7.7 0 0 1 .07-.324.29.29 0 0 1 .244-.133l.035.002h-.001.011c.099 0 .187.048.242.122l.001.001a.453.453 0 0 1 .094.279v.013-.001.187h.561v-.231c0-.133-.025-.26-.072-.377l.002.007a.894.894 0 0 0-.19-.306zm3.367-.024a.976.976 0 0 0-.982-.178.897.897 0 0 0-.517.475l-.002.006a1.007 1.007 0 0 0-.083.42v2.079a1.01 1.01 0 0 0 .083.426.847.847 0 0 0 .219.291c.087.08.189.143.299.183a.978.978 0 0 0 .984-.184l-.001.001a.893.893 0 0 0 .214-.291c.058-.134.086-.279.083-.426v-2.097a1.01 1.01 0 0 0-.086-.408l.003.006a.951.951 0 0 0-.213-.304zm-.265 2.803.001.032a.374.374 0 0 1-.114.269.416.416 0 0 1-.534-.001h.001a.373.373 0 0 1-.114-.268l.002-.035v.001-2.079l-.001-.032c0-.105.044-.201.114-.268a.416.416 0 0 1 .534.001h-.001c.07.068.114.163.114.268 0 .011 0 .023-.002.034v-.001 2.08zm4.687.929v-3.937h-.545l-.716 2.084h-.01l-.722-2.083h-.539v3.936h.562v-2.394h.01l.55 1.693h.281l.555-1.693h.01v2.394h.562zm3.195-3.661a.779.779 0 0 0-.318-.215 1.215 1.215 0 0 0-.386-.061h-.023.001-.835v3.937h.561v-1.538h.289c.175.008.349-.029.506-.107a.823.823 0 0 0 .306-.297l.002-.004a.94.94 0 0 0 .129-.343c.019-.124.03-.267.03-.412v-.037.002a2.212 2.212 0 0 0-.055-.562.836.836 0 0 0-.207-.362zm-.29 1.2a.5.5 0 0 1-.053.208l.001-.003a.316.316 0 0 1-.143.137l-.002.001a.562.562 0 0 1-.235.05l-.03-.001h.001-.256v-1.338h.289l.027-.001a.53.53 0 0 1 .229.051l-.003-.001a.323.323 0 0 1 .131.143l.001.002a.572.572 0 0 1 .049.219v.262c0 .091.006.186 0 .27h-.006zm2.947-1.476h-.46l-.867 3.937h.561l.165-.846h.765l.165.846h.561l-.889-3.937zm-.518 2.555.276-1.427h.01l.274 1.427h-.561zm4.142-.184h-.01l-.847-2.371h-.539v3.937h.561v-2.367h.011l.857 2.367h.528v-3.936h-.561v2.371zm3.427-2.371-.451 1.566h-.011l-.451-1.566h-.593l.77 2.273v1.663h.561v-1.663l.77-2.273h-.594zm-22.256 5.048h.27v.758h.183v-.759h.269v-.155h-.722v.156zm2.273-.156-.354.914h.195l.075-.208h.365l.078.208h.2l-.363-.914h-.195zm-.029.553.124-.339.124.339H21.1zm2.275.024h.211v.118a.344.344 0 0 1-.217.077h-.013a.231.231 0 0 1-.181-.087.376.376 0 0 1-.068-.218l.001-.021v.001c0-.203.088-.305.263-.305l.02-.001c.09 0 .166.062.187.145v.001l.181-.035c-.039-.178-.167-.269-.387-.269h-.012a.462.462 0 0 0-.308.118.444.444 0 0 0-.132.353v-.002.021c0 .123.044.235.118.322l-.001-.001a.445.445 0 0 0 .319.135l.029-.001h-.001.015a.546.546 0 0 0 .373-.146v-.36h-.396v.154zm2.294-.577h-.185v.914h.64v-.155h-.455v-.759zm1.94 0h-.185v.914h.185v-.914zm1.896.611-.374-.61h-.179v.914h.171v-.597l.367.597h.184v-.914h-.17v.611zm1.715-.099h.455v-.155h-.455v-.2h.49v-.156h-.675v.914h.694v-.155h-.509v-.247zm4.157-.151h-.36v-.36h-.183v.914h.183v-.4h.36v.4h.184v-.914h-.184v.361zm1.725.151h.457v-.155h-.457v-.2h.491v-.156h-.674v.914h.693v-.155h-.509v-.247zm2.339 0c.159-.025.24-.109.24-.254a.211.211 0 0 0-.089-.203h-.001a.506.506 0 0 0-.232-.055l-.037.001h.002-.387v.914h.184v-.382h.051c.036 0 .07.008.101.022l-.002-.001a.19.19 0 0 1 .065.067l.199.29h.219l-.111-.178a.635.635 0 0 0-.2-.218l-.002-.001zm-.185-.127h-.135v-.229h.145a.461.461 0 0 1 .19.022l-.003-.001c.025.022.04.054.04.089a.12.12 0 0 1-.048.096.496.496 0 0 1-.153.023l-.036-.001h.002zm1.949.127h.455v-.155h-.455v-.2h.491v-.156h-.677v.914h.694v-.155h-.509v-.247z"/></svg>